<svg width="502" height="811" viewBox="0 0 502 811" fill="none" xmlns="http://www.w3.org/2000/svg">
<path d="M251.501 265.001L321.233 224.344L390.961 265.001L321.233 305.657L251.501 265.001Z" stroke="#4D6983" stroke-opacity="0.42" stroke-width="3" stroke-linejoin="round"/>
<path d="M251.501 265.001V768.331L321.233 808.98V305.657L251.501 265.001Z" stroke="#4D6983" stroke-opacity="0.42" stroke-width="3" stroke-linejoin="round"/>
<path d="M390.988 265.001L390.988 768.697L321.26 809.346L321.261 305.657L390.988 265.001Z" stroke="#4D6983" stroke-opacity="0.42" stroke-width="3" stroke-linejoin="round"/>
<path d="M139.663 177.057L64.5221 132.837V88.7777L139.663 132.837V178.72" stroke="#4D6983" stroke-opacity="0.42" stroke-width="3"/>
<path d="M139.663 177.057L290.61 90.2796V46.392L139.663 132.837V178.72" stroke="#4D6983" stroke-opacity="0.42" stroke-width="3"/>
<path d="M64.5222 88.7777L139.663 132.838L290.61 46.392L214.804 2L64.5222 88.7777Z" stroke="#4D6983" stroke-opacity="0.42" stroke-width="3"/>
<path d="M137.342 642.832V586.449L306.584 685.125V741.575L137.342 642.832Z" stroke="#4D6983" stroke-opacity="0.42" stroke-width="3" stroke-linejoin="round"/>
<path d="M137.342 586.449L330.759 473.671L500.001 572.354L306.584 685.125L137.342 586.449Z" stroke="#4D6983" stroke-opacity="0.42" stroke-width="3" stroke-linejoin="round"/>
<path d="M306.584 741.575L500.002 628.736V572.354L306.584 685.125V741.575Z" stroke="#4D6983" stroke-opacity="0.42" stroke-width="3" stroke-linejoin="round"/>
<path d="M78.1406 796.598L2.9998 752.378V708.318L78.1406 752.378V798.26" stroke="#4D6983" stroke-opacity="0.42" stroke-width="3"/>
<path d="M78.1406 796.598L229.087 709.82V665.933L78.1406 752.378V798.26" stroke="#4D6983" stroke-opacity="0.42" stroke-width="3"/>
<path d="M3 708.318L78.1408 752.378L229.087 665.933L153.282 621.541L3 708.318Z" stroke="#4D6983" stroke-opacity="0.42" stroke-width="3"/>
</svg>
