<svg width="1920" height="1025" viewBox="0 0 1920 1025" fill="none" xmlns="http://www.w3.org/2000/svg">
<mask id="mask0_60_138" style="mask-type:alpha" maskUnits="userSpaceOnUse" x="0" y="0" width="1920" height="1025">
<rect width="1920" height="1025" fill="#D9D9D9"/>
</mask>
<g mask="url(#mask0_60_138)">
<g opacity="0.24">
<path d="M1802 57.42L1871.73 98.4572V57.42L1802 16.5317V57.42Z" fill="white"/>
<path d="M1871.73 98.4572L1802 57.42V16.5317L1871.73 57.42V100" stroke="#39526A" stroke-width="3"/>
<path d="M2011.81 17.9255L1871.73 98.4573V57.42L2011.81 -22.8032V17.9255Z" fill="white"/>
<path d="M1871.73 98.4573L2011.81 17.9255V-22.8032L1871.73 57.42V100" stroke="#39526A" stroke-width="3"/>
<path d="M1802 16.5317L1871.73 57.4206L2011.81 -22.8032L1941.46 -64L1802 16.5317Z" fill="white" stroke="#39526A" stroke-width="3"/>
<path d="M737 212.531L906.151 312.076V212.531L737 113.347V212.531Z" fill="white"/>
<path d="M906.151 312.076L737 212.531V113.347L906.151 212.531V315.818" stroke="#39526A" stroke-width="3"/>
<path d="M1245.95 116.728L906.151 312.076V212.531L1245.95 17.9318V116.728Z" fill="white"/>
<path d="M906.151 312.076L1245.95 116.728V17.9318L906.151 212.531V315.818" stroke="#39526A" stroke-width="3"/>
<path d="M737 113.347L906.152 212.532L1245.95 17.932L1075.3 -82L737 113.347Z" fill="white" stroke="#39526A" stroke-width="3"/>
<path d="M1507 968.726V916.488L1350.2 1007.91V1060.21L1507 968.726Z" fill="white"/>
<path d="M1507 968.726V916.488L1350.2 1007.91V1060.21L1507 968.726Z" fill="white" fill-opacity="0.2"/>
<path d="M1507 968.726V916.488L1350.2 1007.91V1060.21L1507 968.726Z" stroke="#39526A" stroke-width="3" stroke-linejoin="round"/>
<path d="M1507 916.488L1327.8 812L1171 903.429L1350.2 1007.91L1507 916.488Z" fill="white"/>
<path d="M1507 916.488L1327.8 812L1171 903.429L1350.2 1007.91L1507 916.488Z" fill="white" fill-opacity="0.2"/>
<path d="M1507 916.488L1327.8 812L1171 903.429L1350.2 1007.91L1507 916.488Z" stroke="#39526A" stroke-width="3" stroke-linejoin="round"/>
<path d="M1350.2 1060.21L1171 955.667V903.429L1350.2 1007.91V1060.21Z" fill="white"/>
<path d="M1350.2 1060.21L1171 955.667V903.429L1350.2 1007.91V1060.21Z" fill="white" fill-opacity="0.2"/>
<path d="M1350.2 1060.21L1171 955.667V903.429L1350.2 1007.91V1060.21Z" stroke="#39526A" stroke-width="3" stroke-linejoin="round"/>
<path d="M2048 997.726V945.488L1891.2 1036.91V1089.21L2048 997.726Z" fill="white"/>
<path d="M2048 997.726V945.488L1891.2 1036.91V1089.21L2048 997.726Z" fill="white" fill-opacity="0.2"/>
<path d="M2048 997.726V945.488L1891.2 1036.91V1089.21L2048 997.726Z" stroke="#39526A" stroke-width="3" stroke-linejoin="round"/>
<path d="M2048 945.488L1868.8 841L1712 932.429L1891.2 1036.91L2048 945.488Z" fill="white"/>
<path d="M2048 945.488L1868.8 841L1712 932.429L1891.2 1036.91L2048 945.488Z" fill="white" fill-opacity="0.2"/>
<path d="M2048 945.488L1868.8 841L1712 932.429L1891.2 1036.91L2048 945.488Z" stroke="#39526A" stroke-width="3" stroke-linejoin="round"/>
<path d="M1891.2 1089.21L1712 984.667V932.429L1891.2 1036.91V1089.21Z" fill="white"/>
<path d="M1891.2 1089.21L1712 984.667V932.429L1891.2 1036.91V1089.21Z" fill="white" fill-opacity="0.2"/>
<path d="M1891.2 1089.21L1712 984.667V932.429L1891.2 1036.91V1089.21Z" stroke="#39526A" stroke-width="3" stroke-linejoin="round"/>
<path d="M1768.18 476.634L1655.61 411L1543.04 476.634L1655.61 542.267L1768.18 476.634Z" stroke="#39526A" stroke-width="3" stroke-linejoin="round"/>
<path d="M1768.18 476.634V765.482L1655.61 831.103V542.267L1768.18 476.634Z" stroke="#39526A" stroke-width="3" stroke-linejoin="round"/>
<path d="M1543 476.634V765.482L1655.56 831.103V542.267L1543 476.634Z" stroke="#39526A" stroke-width="3" stroke-linejoin="round"/>
<path d="M1720 596.22L1789.62 637.189V596.22L1720 555.399V596.22Z" fill="white"/>
<path d="M1789.62 637.189L1720 596.22V555.399L1789.62 596.22V638.73" stroke="#39526A" stroke-width="3"/>
<path d="M1929.47 556.79L1789.62 637.189V596.22L1929.47 516.129V556.79Z" fill="white"/>
<path d="M1789.62 637.189L1929.47 556.79V516.129L1789.62 596.22V638.73" stroke="#39526A" stroke-width="3"/>
<path d="M1720 555.399L1789.62 596.22L1929.47 516.129L1859.23 475L1720 555.399Z" fill="white" stroke="#39526A" stroke-width="3"/>
<path d="M626.002 968.726V916.488L469.2 1007.91V1060.21L626.002 968.726Z" fill="white"/>
<path d="M626.002 968.726V916.488L469.2 1007.91V1060.21L626.002 968.726Z" fill="white" fill-opacity="0.2"/>
<path d="M626.002 968.726V916.488L469.2 1007.91V1060.21L626.002 968.726Z" stroke="#39526A" stroke-width="3" stroke-linejoin="round"/>
<path d="M626.002 916.488L446.802 812L290 903.429L469.2 1007.91L626.002 916.488Z" fill="white"/>
<path d="M626.002 916.488L446.802 812L290 903.429L469.2 1007.91L626.002 916.488Z" fill="white" fill-opacity="0.2"/>
<path d="M626.002 916.488L446.802 812L290 903.429L469.2 1007.91L626.002 916.488Z" stroke="#39526A" stroke-width="3" stroke-linejoin="round"/>
<path d="M469.2 1060.21L290 955.667V903.429L469.2 1007.91V1060.21Z" fill="white"/>
<path d="M469.2 1060.21L290 955.667V903.429L469.2 1007.91V1060.21Z" fill="white" fill-opacity="0.2"/>
<path d="M469.2 1060.21L290 955.667V903.429L469.2 1007.91V1060.21Z" stroke="#39526A" stroke-width="3" stroke-linejoin="round"/>
<path d="M151.234 336.668L86.6275 299L22.0251 336.668L86.6275 374.336L151.234 336.668Z" stroke="#39526A" stroke-width="3" stroke-linejoin="round"/>
<path d="M151.234 336.668V803L86.6275 840.661V374.336L151.234 336.668Z" stroke="#39526A" stroke-width="3" stroke-linejoin="round"/>
<path d="M22 336.668L22.0001 803.339L86.6025 841L86.6024 374.336L22 336.668Z" stroke="#39526A" stroke-width="3" stroke-linejoin="round"/>
<path d="M254.851 255.189L324.469 214.22V173.399L254.851 214.22V256.73" stroke="#39526A" stroke-width="3"/>
<path d="M254.851 255.189L115 174.79V134.129L254.851 214.22V256.73" stroke="#39526A" stroke-width="3"/>
<path d="M324.468 173.399L254.851 214.22L115 134.129L185.234 93L324.468 173.399Z" stroke="#39526A" stroke-width="3"/>
<path d="M257.002 686.726V634.488L100.2 725.911V778.211L257.002 686.726Z" fill="white"/>
<path d="M257.002 686.726V634.488L100.2 725.911V778.211L257.002 686.726Z" fill="white" fill-opacity="0.2"/>
<path d="M257.002 686.726V634.488L100.2 725.911V778.211L257.002 686.726Z" stroke="#39526A" stroke-width="3" stroke-linejoin="round"/>
<path d="M257.002 634.488L77.8016 530L-78.9999 621.429L100.2 725.911L257.002 634.488Z" fill="white"/>
<path d="M257.002 634.488L77.8016 530L-78.9999 621.429L100.2 725.911L257.002 634.488Z" fill="white" fill-opacity="0.2"/>
<path d="M257.002 634.488L77.8016 530L-78.9999 621.429L100.2 725.911L257.002 634.488Z" stroke="#39526A" stroke-width="3" stroke-linejoin="round"/>
<path d="M100.2 778.211L-79 673.667V621.429L100.2 725.911V778.211Z" fill="white"/>
<path d="M100.2 778.211L-79 673.667V621.429L100.2 725.911V778.211Z" fill="white" fill-opacity="0.2"/>
<path d="M100.2 778.211L-79 673.667V621.429L100.2 725.911V778.211Z" stroke="#39526A" stroke-width="3" stroke-linejoin="round"/>
<path d="M381.469 788.22L311.851 829.189V788.22L381.469 747.399V788.22Z" fill="white"/>
<path d="M311.851 829.189L381.469 788.22V747.399L311.851 788.22V830.73" stroke="#39526A" stroke-width="3"/>
<path d="M172 748.79L311.851 829.189V788.22L172 708.129V748.79Z" fill="white"/>
<path d="M311.851 829.189L172 748.79V708.129L311.851 788.22V830.73" stroke="#39526A" stroke-width="3"/>
<path d="M381.468 747.399L311.851 788.22L172 708.129L242.234 667L381.468 747.399Z" fill="white" stroke="#39526A" stroke-width="3"/>
</g>
</g>
</svg>
