<svg width="321" height="54" viewBox="0 0 321 54" fill="none" xmlns="http://www.w3.org/2000/svg">
<path d="M10.9012 54L15.5325 34.0342L0 20.6053L20.52 18.8289L28.5 0L36.48 18.8289L57 20.6053L41.4675 34.0342L46.0987 54L28.5 43.4132L10.9012 54Z" fill="#FF5900"/>
<path d="M142.901 54L147.532 34.0342L132 20.6053L152.52 18.8289L160.5 0L168.48 18.8289L189 20.6053L173.467 34.0342L178.099 54L160.5 43.4132L142.901 54Z" fill="#FF5900"/>
<path d="M76.9012 54L81.5325 34.0342L66 20.6053L86.52 18.8289L94.5 0L102.48 18.8289L123 20.6053L107.467 34.0342L112.099 54L94.5 43.4132L76.9012 54Z" fill="#FF5900"/>
<path d="M208.901 54L213.532 34.0342L198 20.6053L218.52 18.8289L226.5 0L234.48 18.8289L255 20.6053L239.467 34.0342L244.099 54L226.5 43.4132L208.901 54Z" fill="#FF5900"/>
<path d="M274.901 54L279.532 34.0342L264 20.6053L284.52 18.8289L292.5 0L300.48 18.8289L321 20.6053L305.467 34.0342L310.099 54L292.5 43.4132L274.901 54Z" fill="#FF5900"/>
</svg>
