<svg width="211" height="58" viewBox="0 0 211 58" fill="none" xmlns="http://www.w3.org/2000/svg">
<g clip-path="url(#clip0_1_225)">
<path d="M80.7859 28.603V10.3403L95.3701 10.394V40.5164C92.8239 33.8209 84.9532 28.9164 80.7859 28.603Z" fill="white"/>
<path d="M73.3079 29.1582V10.3403H58.7236V47.9731H73.3079V31.3134C76.4163 31.5194 82.2048 35.0627 82.2048 47.9731H95.3701C94.9388 41.7313 89.9148 29.2746 73.3079 29.1582Z" fill="white"/>
<path d="M192.305 10.0328V10.0507C174.529 10.2269 174.847 22.4687 174.392 28.7373H174.383C174.383 28.7582 174.386 28.7791 174.389 28.8C174.389 28.8209 174.386 28.8418 174.383 28.8627H174.392C174.847 35.1343 174.532 47.7731 192.305 47.9552V47.9731C210.789 47.9731 210.521 35.2119 211 28.9373C210.521 22.6657 210.789 10.0328 192.305 10.0328ZM192.635 44.7881C189.375 44.7164 188.724 41.9015 188.724 28.797C188.724 15.6657 189.378 13.2716 192.656 13.2119C195.702 13.4149 196.44 15.9343 196.446 28.603C196.443 41.3075 195.699 44.5433 192.635 44.7851V44.7881Z" fill="white"/>
<path d="M112.483 29.1582V19.2955C112.908 14.5015 113.922 13.3851 116.144 13.3463C119.196 13.5493 119.934 16.0806 119.934 28.8388C124.101 29.1522 131.969 33.6418 134.518 40.3373L134.492 29.0687C134.013 22.797 134.28 10.1642 115.796 10.1642V10.1821C97.9015 10.3582 98.3417 22.7672 97.8718 28.994H97.9015V47.9701H112.486V31.3224C115.612 31.6269 121.195 35.2597 121.195 47.9701H134.298C133.87 41.7463 128.896 29.3463 112.486 29.1582H112.483Z" fill="white"/>
<path d="M151.988 29.391V10.3373H137.404V47.9701H151.988V31.5134C155.325 31.6299 161.774 35.0478 161.774 47.9701H176.058C175.588 41.791 170.112 29.4448 151.988 29.391Z" fill="white"/>
<path d="M161.396 28.5134C169.677 24.6239 172.209 17.1104 172.209 10.4H157.782C159.897 19.2418 156.937 26.7851 155.168 28.0507C157.401 27.9015 159.522 28.1194 161.396 28.5134Z" fill="white"/>
<path d="M41.3522 22.009C42.2714 24.1552 42.78 26.5164 42.78 29C42.78 38.3582 35.5548 46.0209 26.3962 46.6836V58L50.2105 43.9045V16.7672L41.3522 22.0119V22.009Z" fill="white"/>
<path d="M7.43044 29C7.43044 26.5164 7.94206 24.1552 8.85822 22.009L0 16.7672V43.9075L23.8143 58.003V46.6866C14.6556 46.0209 7.43044 38.3612 7.43044 29.003V29Z" fill="white"/>
<path d="M25.1052 11.2627C31.6582 11.2627 37.3753 14.8448 40.4272 20.1612L50.2075 14.4806L25.1023 0L0.226074 14.4806L9.81901 20.1045C12.8798 14.8209 18.5791 11.2627 25.1082 11.2627H25.1052Z" fill="white"/>
<path d="M40.7633 29.0269C40.7633 26.8716 40.329 24.8149 39.5467 22.9463L26.3307 30.7702V44.6896C34.4067 44.0627 40.7633 37.2925 40.7633 29.0269Z" fill="#EC6F43"/>
<path d="M38.6692 21.1821C35.9624 16.4806 30.9027 13.3134 25.1053 13.3134C19.3079 13.3134 14.2838 16.4567 11.571 21.1313L25.1023 29.0627L38.6692 21.1821Z" fill="#EC6F43"/>
<path d="M10.6638 22.9463C9.88149 24.8179 9.4472 26.8716 9.4472 29.0269C9.4472 37.2925 15.8068 44.0597 23.8797 44.6896V30.7702L10.6638 22.9463Z" fill="#EC6F43"/>
</g>
<defs>
<clipPath id="clip0_1_225">
<rect width="211" height="58" fill="white"/>
</clipPath>
</defs>
</svg>
