<svg width="213" height="58" viewBox="0 0 213 58" fill="none" xmlns="http://www.w3.org/2000/svg">
<g clip-path="url(#clip0_2_25)">
<path d="M81.5516 28.603V10.3403L96.2741 10.3941V40.5164C93.7038 33.8209 85.7585 28.9165 81.5516 28.603Z" fill="#39526A"/>
<path d="M74.0028 29.1582V10.3403H59.2803V47.9732H74.0028V31.3135C77.1406 31.5194 82.984 35.0627 82.984 47.9732H96.2741C95.8387 41.7314 90.7671 29.2747 74.0028 29.1582Z" fill="#39526A"/>
<path d="M194.128 10.0327V10.0506C176.183 10.2267 176.505 22.4685 176.045 28.7372H176.036C176.036 28.7581 176.039 28.779 176.042 28.7999C176.042 28.8208 176.039 28.8417 176.036 28.8626H176.045C176.505 35.1342 176.186 47.773 194.128 47.9551V47.973C212.787 47.973 212.517 35.2118 213 28.9372C212.517 22.6656 212.787 10.0327 194.128 10.0327ZM194.461 44.7879C191.17 44.7163 190.512 41.9014 190.512 28.7969C190.512 15.6656 191.173 13.2715 194.482 13.2118C197.557 13.4148 198.302 15.9342 198.308 28.6029C198.305 41.3073 197.554 44.5432 194.461 44.785V44.7879Z" fill="#39526A"/>
<path d="M113.549 29.1581V19.2954C113.978 14.5014 115.002 13.385 117.245 13.3462C120.326 13.5491 121.071 16.0805 121.071 28.8387C125.278 29.1521 133.22 33.6417 135.793 40.3372L135.766 29.0685C135.283 22.7969 135.553 10.1641 116.894 10.1641V10.182C98.8295 10.3581 99.2739 22.767 98.7994 28.9939H98.8295V47.97H113.552V31.3223C116.708 31.6268 122.344 35.2596 122.344 47.97H135.571C135.139 41.7462 130.118 29.3462 113.552 29.1581H113.549Z" fill="#39526A"/>
<path d="M153.428 29.3911V10.3374H138.706V47.9702H153.428V31.5135C156.798 31.6299 163.308 35.0478 163.308 47.9702H177.727C177.252 41.7911 171.724 29.4449 153.428 29.3911Z" fill="#39526A"/>
<path d="M162.926 28.5133C171.286 24.6238 173.841 17.1103 173.841 10.3999H159.278C161.413 19.2417 158.425 26.785 156.638 28.0506C158.893 27.9014 161.034 28.1193 162.926 28.5133Z" fill="#39526A"/>
<path d="M41.7442 22.0089C42.6721 24.1552 43.1856 26.5163 43.1856 28.9999C43.1856 38.3581 35.8919 46.0208 26.6464 46.6835V57.9999L50.6864 43.9044V16.7671L41.7442 22.0119V22.0089Z" fill="#39526A"/>
<path d="M7.50087 28.9999C7.50087 26.5163 8.01734 24.1552 8.94219 22.0089L0 16.7671V43.9074L24.04 58.0029V46.6865C14.7945 46.0208 7.50087 38.3611 7.50087 29.0029V28.9999Z" fill="#39526A"/>
<path d="M25.3432 11.2627C31.9583 11.2627 37.7295 14.8448 40.8104 20.1612L50.6834 14.4806L25.3402 0L0.22821 14.4806L9.91208 20.1045C13.0019 14.8209 18.7552 11.2627 25.3462 11.2627H25.3432Z" fill="#39526A"/>
<path d="M41.1497 29.0269C41.1497 26.8717 40.7113 24.8149 39.9215 22.9463L26.5803 30.7702V44.6896C34.7328 44.0627 41.1497 37.2926 41.1497 29.0269Z" fill="#EC6F43"/>
<path d="M39.0357 21.1821C36.3032 16.4806 31.1955 13.3135 25.3432 13.3135C19.4908 13.3135 14.4192 16.4568 11.6807 21.1314L25.3402 29.0627L39.0357 21.1821Z" fill="#EC6F43"/>
<path d="M10.7649 22.9463C9.97514 24.8179 9.53674 26.8717 9.53674 29.0269C9.53674 37.2926 15.9566 44.0597 24.1061 44.6896V30.7702L10.7649 22.9463Z" fill="#EC6F43"/>
</g>
<defs>
<clipPath id="clip0_2_25">
<rect width="213" height="58" fill="white"/>
</clipPath>
</defs>
</svg>
