<svg width="54" height="62" viewBox="0 0 54 62" fill="none" xmlns="http://www.w3.org/2000/svg">
<path d="M41.4182 22.6429C38.5189 17.6172 33.0995 14.2316 26.8899 14.2316C20.6804 14.2316 15.2992 17.5917 12.3936 22.5887L26.8867 31.067L41.4182 22.6429Z" fill="#EC6F43"/>
<path d="M44.2917 23.5268C45.2762 25.8211 45.821 28.3451 45.821 31C45.821 41.0036 38.0822 49.1947 28.2725 49.9031V62L53.7797 46.9324V17.9235L44.2917 23.53V23.5268Z" fill="#39526A"/>
<path d="M7.95867 31C7.95867 28.3451 8.50666 25.8211 9.48795 23.5268L0 17.9235V46.9356L25.5072 62.0032V49.9063C15.6975 49.1947 7.95867 41.0068 7.95867 31.0032V31Z" fill="#39526A"/>
<path d="M26.89 12.0394C33.9088 12.0394 40.0323 15.8686 43.3012 21.5516L53.7768 15.4793L26.8868 0L0.242188 15.4793L10.5171 21.491C13.7955 15.843 19.8999 12.0394 26.8932 12.0394H26.89Z" fill="#39526A"/>
<path d="M43.6612 31.0287C43.6612 28.7249 43.196 26.5263 42.3581 24.5288L28.2026 32.8922V47.7716C36.8527 47.1015 43.6612 39.8644 43.6612 31.0287Z" fill="#EC6F43"/>
<path d="M11.4217 24.5288C10.5838 26.5295 10.1187 28.7249 10.1187 31.0287C10.1187 39.8644 16.9304 47.0983 25.5772 47.7716V32.8922L11.4217 24.5288Z" fill="#EC6F43"/>
</svg>
