<svg width="120" height="120" viewBox="0 0 120 120" fill="none" xmlns="http://www.w3.org/2000/svg">
<path d="M43.75 50C43.75 45.6902 45.4621 41.557 48.5095 38.5095C51.557 35.462 55.6902 33.75 60 33.75C64.3098 33.75 68.443 35.462 71.4905 38.5095C74.5379 41.557 76.25 45.6902 76.25 50C76.25 54.3098 74.5379 58.443 71.4905 61.4905C68.443 64.5379 64.3098 66.25 60 66.25C55.6902 66.25 51.557 64.5379 48.5095 61.4905C45.4621 58.443 43.75 54.3098 43.75 50Z" fill="black"/>
<path fill-rule="evenodd" clip-rule="evenodd" d="M18.87 44.385C19.7017 34.3338 24.2811 24.9623 31.6998 18.1299C39.1185 11.2975 48.8344 7.50328 58.92 7.5H61.08C71.1656 7.50328 80.8815 11.2975 88.3002 18.1299C95.7189 24.9623 100.298 34.3338 101.13 44.385C102.053 55.607 98.5884 66.7497 91.465 75.47L67.5 104.78C66.5917 105.892 65.4476 106.788 64.1504 107.403C62.8533 108.018 61.4356 108.337 60 108.337C58.5644 108.337 57.1467 108.018 55.8496 107.403C54.5525 106.788 53.4083 105.892 52.5 104.78L28.54 75.47C21.4148 66.7505 17.9485 55.6077 18.87 44.385ZM60 26.25C53.7011 26.25 47.6602 28.7522 43.2062 33.2062C38.7522 37.6602 36.25 43.7011 36.25 50C36.25 56.2989 38.7522 62.3398 43.2062 66.7938C47.6602 71.2478 53.7011 73.75 60 73.75C66.2989 73.75 72.3398 71.2478 76.7938 66.7938C81.2478 62.3398 83.75 56.2989 83.75 50C83.75 43.7011 81.2478 37.6602 76.7938 33.2062C72.3398 28.7522 66.2989 26.25 60 26.25Z" fill="#39526A"/>
<circle cx="60" cy="49" r="17" fill="url(#paint0_radial_18_483)"/>
<defs>
<radialGradient id="paint0_radial_18_483" cx="0" cy="0" r="1" gradientUnits="userSpaceOnUse" gradientTransform="translate(75.2292 42.625) rotate(149.959) scale(33.9575)">
<stop stop-color="#FF5900"/>
<stop offset="1" stop-color="#C84600"/>
</radialGradient>
</defs>
</svg>
