<svg width="19" height="15" viewBox="0 0 19 15" fill="none" xmlns="http://www.w3.org/2000/svg">
<path d="M18.25 4.532V11.6562C18.25 12.3826 17.9721 13.0815 17.4733 13.6095C16.9744 14.1374 16.2925 14.4545 15.5673 14.4956L15.4062 14.5H3.59375C2.86738 14.5 2.16852 14.2221 1.64055 13.7233C1.11257 13.2244 0.795499 12.5425 0.754375 11.8173L0.75 11.6562V4.532L9.1955 8.956C9.28945 9.00521 9.39394 9.03092 9.5 9.03092C9.60606 9.03092 9.71055 9.00521 9.8045 8.956L18.25 4.532ZM3.59375 0.5H15.4062C16.1111 0.499915 16.7909 0.761621 17.3138 1.23436C17.8366 1.7071 18.1653 2.35717 18.236 3.0585L9.5 7.63475L0.764 3.0585C0.831833 2.38502 1.13767 1.75783 1.62653 1.28966C2.11539 0.821483 2.75522 0.543039 3.431 0.504375L3.59375 0.5Z" fill="#39526A"/>
</svg>
