<svg width="13" height="23" viewBox="0 0 13 23" fill="none" xmlns="http://www.w3.org/2000/svg">
<path d="M0.25 3.29688C0.25 1.7875 1.475 0.5625 2.98438 0.5625H10.0156C11.525 0.5625 12.75 1.7875 12.75 3.29688V19.7031C12.75 20.4283 12.4619 21.1238 11.9491 21.6366C11.4363 22.1494 10.7408 22.4375 10.0156 22.4375H2.98438C2.25917 22.4375 1.56367 22.1494 1.05088 21.6366C0.538085 21.1238 0.25 20.4283 0.25 19.7031V3.29688ZM4.9375 17.75C4.7303 17.75 4.53159 17.8323 4.38507 17.9788C4.23856 18.1253 4.15625 18.324 4.15625 18.5312C4.15625 18.7385 4.23856 18.9372 4.38507 19.0837C4.53159 19.2302 4.7303 19.3125 4.9375 19.3125H8.0625C8.2697 19.3125 8.46842 19.2302 8.61493 19.0837C8.76144 18.9372 8.84375 18.7385 8.84375 18.5312C8.84375 18.324 8.76144 18.1253 8.61493 17.9788C8.46842 17.8323 8.2697 17.75 8.0625 17.75H4.9375Z" fill="#39526A"/>
</svg>
