<svg width="17" height="17" viewBox="0 0 17 17" fill="none" xmlns="http://www.w3.org/2000/svg">
<path d="M3.90625 5.5625C3.90625 6.78084 4.39023 7.94928 5.25173 8.81077C6.11322 9.67227 7.28166 10.1562 8.5 10.1562C9.71834 10.1562 10.8868 9.67227 11.7483 8.81077C12.6098 7.94928 13.0938 6.78084 13.0938 5.5625C13.0938 4.34416 12.6098 3.17572 11.7483 2.31423C10.8868 1.45273 9.71834 0.96875 8.5 0.96875C7.28166 0.96875 6.11322 1.45273 5.25173 2.31423C4.39023 3.17572 3.90625 4.34416 3.90625 5.5625ZM15.0625 18.0312H1.28125C1.1072 18.0312 0.940282 17.9621 0.817211 17.839C0.694141 17.716 0.625 17.549 0.625 17.375V15.4062C0.625 14.536 0.970702 13.7014 1.58606 13.0861C2.20141 12.4707 3.03601 12.125 3.90625 12.125H13.0938C13.964 12.125 14.7986 12.4707 15.4139 13.0861C16.0293 13.7014 16.375 14.536 16.375 15.4062V17.375C16.375 17.549 16.3059 17.716 16.1828 17.839C16.0597 17.9621 15.8928 18.0312 15.7188 18.0312H15.0625Z" fill="#39526A"/>
</svg>
